<svg id="Layer_1" xmlns="http://www.w3.org/2000/svg" viewBox="17 66.4 233.2 69.6"><style>.st0{fill:#FFF}</style><path class="st0" d="M247.6 67.5c-.8-.2-1.6.3-1.8 1.1L240 90.1c-.5-1.5-1.2-2.8-2.1-3.9-1.9-2.5-4.7-3.8-7.9-3.8-7.8 0-15.9 8.1-18.4 18.3-1.5 6-.7 11.6 2.2 15.2 1.9 2.5 4.7 3.8 7.9 3.8 4.2 0 8.5-2.3 11.9-6.1l-1.1 4.2c-.2.8.3 1.6 1.1 1.8.1 0 .3.1.4.1.7 0 1.3-.4 1.4-1.1l13.2-49.3c.3-.8-.2-1.6-1-1.8zm-25.9 49.2c-2.2 0-4.1-.9-5.5-2.7-2.3-2.9-2.9-7.6-1.7-12.7 2.1-8.8 9.1-16 15.5-16 2.2 0 4.1.9 5.5 2.7 2.1 2.7 2.8 7 1.9 11.6l-.9 3.3c-2.6 7.8-8.9 13.8-14.8 13.8zM160.3 83.3c-.3-.8-1.1-1.2-1.9-.9-.8.3-1.2 1.1-.9 1.9.1.2 5.1 15.4-12.6 31.2l-2.6-9.7c6.9-12.2 3.7-21.9 3.5-22.4-.3-.8-1.1-1.2-1.9-.9-.8.3-1.2 1.1-.9 1.9 0 .1 2.4 7.4-1.8 17l-4.8-18c-.2-.8-1-1.3-1.8-1.1-.8.2-1.3 1-1.1 1.8l5.6 21.1c-2 3.3-4.8 6.7-8.7 10.2l-8.5-32c-.2-.8-1-1.3-1.8-1.1-.8.2-1.3 1-1.1 1.8l9.2 34.4c.1.5.5.9 1 1 .1 0 .3.1.5.1.3 0 .7-.1 1-.3 4.1-3.4 7.3-6.8 9.6-10.1l2.5 9.4c.1.5.5.9 1 1 .2 0 .3.1.5.1.3 0 .7-.1 1-.3 21.1-17.7 15.3-35.4 15-36.1zM86 101.4c.1 0 .1 0 0 0 1.6-6.1.9-11.6-1.9-15.3-1.9-2.5-4.7-3.8-7.9-3.8-7.9 0-16.2 8-18.9 18.3-1.7 6.4-1.1 12.4 1.6 16 1.6 2 3.7 3.1 6.1 3.1 6.6 0 11.8-4.5 15.3-9l-1.9 7.1c-.2.8.3 1.6 1.1 1.8.1 0 .3.1.4.1.7 0 1.3-.4 1.4-1.1l4.7-17.2zm-20.9 15.3c-1.5 0-2.7-.7-3.7-1.9-2.1-2.8-2.6-7.9-1.1-13.4 2.4-8.9 9.6-16.1 16-16.1 2.3 0 4.1.9 5.5 2.7 2.2 2.8 2.7 7.5 1.4 12.5-.6 1.3-7.6 16.2-18.1 16.2zM45.3 84.1c.2-.8-.3-1.5-1.1-1.8-.8-.2-1.6.2-1.8 1-2 6.1-12.7 33.4-22.9 33.4-.8 0-1.5.7-1.5 1.5s.7 1.5 1.5 1.5c3.5 0 7-2.1 10.6-6.2 2.7 4.1 6.6 6.4 11 6.4.6 0 1.3 0 1.9-.1 6-.9 11-5.8 12-11.9.9-5.1-2.2-9-5.2-12.8-2.7-3.7-5.3-7.1-4.5-11zm6.8 23.2c-.8 4.9-4.7 8.8-9.5 9.4-4.3.6-8-1.5-10.5-5.7 1.9-2.5 3.8-5.6 5.7-9.3 2.2-4.2 4-8.4 5.3-11.7 1 2.4 2.7 4.6 4.4 6.7 2.7 3.5 5.2 6.8 4.6 10.6zM108.1 82.3c-4.2 0-8.5 2.3-12 6.1l1.1-4.2c.2-.8-.3-1.6-1.1-1.8-.8-.2-1.6.3-1.8 1.1l-13.1 49.2c-.2.8.3 1.6 1.1 1.8.1 0 .3.1.4.1.7 0 1.3-.4 1.4-1.1l5.8-21.6c.5 1.5 1.2 2.8 2.1 4 1.9 2.5 4.7 3.8 7.9 3.8 7.8 0 15.9-8.1 18.4-18.3 1.5-6 .7-11.6-2.2-15.2-2.1-2.5-4.9-3.9-8-3.9zm7.2 18.3c-2.1 8.8-9.1 16-15.5 16-2.2 0-4.1-.9-5.5-2.7-2.1-2.7-2.8-7-1.9-11.6l.9-3.3c2.7-7.8 9-13.8 14.8-13.8 2.2 0 4.1.9 5.5 2.7 2.3 2.9 2.9 7.7 1.7 12.7z"/><path class="st0" d="M200 82.3c-4 0-8.2 2.2-11.5 5.7-.3-.7-.7-1.3-1.2-1.8-1.9-2.5-4.7-3.8-7.9-3.8-7.8 0-15.9 8.1-18.4 18.3-1.5 6-.7 11.6 2.2 15.2 1.9 2.5 4.7 3.8 7.9 3.8 4 0 8.2-2.2 11.5-5.7.3.7.7 1.3 1.2 1.8 1.9 2.5 4.7 3.8 7.9 3.8 7.8 0 15.9-8.1 18.4-18.3 1.5-6 .7-11.6-2.2-15.2-1.9-2.4-4.7-3.8-7.9-3.8zm-28.9 34.4c-2.2 0-4.1-.9-5.5-2.7-2.3-2.9-2.9-7.6-1.7-12.7 2.1-8.8 9.1-16 15.5-16 2.2 0 4.1.9 5.5 2.7.6.7 1 1.6 1.4 2.5-2.1 2.9-3.8 6.4-4.7 10.2-.9 3.7-.9 7.2-.2 10.2-2.9 3.5-6.7 5.8-10.3 5.8zm15.5-16.1c-.6 2.4-1.5 4.6-2.7 6.6-.1-1.9.1-3.9.6-5.9.6-2.4 1.5-4.6 2.7-6.6.1 1.9-.1 3.9-.6 5.9zm20.6 0c-2.1 8.8-9.1 16-15.5 16-2.2 0-4.1-.9-5.5-2.7-.6-.7-1-1.6-1.4-2.5 2.1-2.9 3.8-6.4 4.7-10.2.9-3.7.9-7.2.2-10.2 3-3.5 6.7-5.8 10.3-5.8 2.2 0 4.1.9 5.5 2.7 2.3 2.9 2.9 7.7 1.7 12.7z"/></svg>