<?xml version="1.0" encoding="utf-8"?>
<!-- Generator: Adobe Illustrator 19.1.0, SVG Export Plug-In . SVG Version: 6.00 Build 0)  -->
<!DOCTYPE svg PUBLIC "-//W3C//DTD SVG 1.1//EN" "http://www.w3.org/Graphics/SVG/1.1/DTD/svg11.dtd">
<svg version="1.1" id="Layer_1" xmlns="http://www.w3.org/2000/svg" xmlns:xlink="http://www.w3.org/1999/xlink" x="0px" y="0px"
	 viewBox="17 66.4 233.2 69.6" style="enable-background:new 17 66.4 233.2 69.6;" xml:space="preserve">
<style type="text/css">
	.st0{fill:#FFFFFF;}
</style>
<g>
	<path class="st0" d="M247.6,67.5c-0.8-0.2-1.6,0.3-1.8,1.1L240,90.1c-0.5-1.5-1.2-2.8-2.1-3.9c-1.9-2.5-4.7-3.8-7.9-3.8
		c-7.8,0-15.9,8.1-18.4,18.3c-1.5,6-0.7,11.6,2.2,15.2c1.9,2.5,4.7,3.8,7.9,3.8c4.2,0,8.5-2.3,11.9-6.1l-1.1,4.2
		c-0.2,0.8,0.3,1.6,1.1,1.8c0.1,0,0.3,0.1,0.4,0.1c0.7,0,1.3-0.4,1.4-1.1l13.2-49.3C248.9,68.5,248.4,67.7,247.6,67.5z M221.7,116.7
		c-2.2,0-4.1-0.9-5.5-2.7c-2.3-2.9-2.9-7.6-1.7-12.7c2.1-8.8,9.1-16,15.5-16c2.2,0,4.1,0.9,5.5,2.7c2.1,2.7,2.8,7,1.9,11.6l-0.9,3.3
		C233.9,110.7,227.6,116.7,221.7,116.7z"/>
	<path class="st0" d="M160.3,83.3c-0.3-0.8-1.1-1.2-1.9-0.9c-0.8,0.3-1.2,1.1-0.9,1.9c0.1,0.2,5.1,15.4-12.6,31.2l-2.6-9.7
		c6.9-12.2,3.7-21.9,3.5-22.4c-0.3-0.8-1.1-1.2-1.9-0.9c-0.8,0.3-1.2,1.1-0.9,1.9c0,0.1,2.4,7.4-1.8,17l-4.8-18
		c-0.2-0.8-1-1.3-1.8-1.1c-0.8,0.2-1.3,1-1.1,1.8l5.6,21.1c-2,3.3-4.8,6.7-8.7,10.2l-8.5-32c-0.2-0.8-1-1.3-1.8-1.1
		c-0.8,0.2-1.3,1-1.1,1.8l9.2,34.4c0.1,0.5,0.5,0.9,1,1c0.1,0,0.3,0.1,0.5,0.1c0.3,0,0.7-0.1,1-0.3c4.1-3.4,7.3-6.8,9.6-10.1
		l2.5,9.4c0.1,0.5,0.5,0.9,1,1c0.2,0,0.3,0.1,0.5,0.1c0.3,0,0.7-0.1,1-0.3C166.4,101.7,160.6,84,160.3,83.3z"/>
	<path class="st0" d="M86,101.4C86.1,101.4,86.1,101.4,86,101.4c1.6-6.1,0.9-11.6-1.9-15.3c-1.9-2.5-4.7-3.8-7.9-3.8
		c-7.9,0-16.2,8-18.9,18.3c-1.7,6.4-1.1,12.4,1.6,16c1.6,2,3.7,3.1,6.1,3.1c6.6,0,11.8-4.5,15.3-9l-1.9,7.1
		c-0.2,0.8,0.3,1.6,1.1,1.8c0.1,0,0.3,0.1,0.4,0.1c0.7,0,1.3-0.4,1.4-1.1L86,101.4z M65.1,116.7c-1.5,0-2.7-0.7-3.7-1.9
		c-2.1-2.8-2.6-7.9-1.1-13.4c2.4-8.9,9.6-16.1,16-16.1c2.3,0,4.1,0.9,5.5,2.7c2.2,2.8,2.7,7.5,1.4,12.5
		C82.6,101.8,75.6,116.7,65.1,116.7z"/>
	<path class="st0" d="M45.3,84.1c0.2-0.8-0.3-1.5-1.1-1.8c-0.8-0.2-1.6,0.2-1.8,1c-2,6.1-12.7,33.4-22.9,33.4
		c-0.8,0-1.5,0.7-1.5,1.5c0,0.8,0.7,1.5,1.5,1.5c3.5,0,7-2.1,10.6-6.2c2.7,4.1,6.6,6.4,11,6.4c0.6,0,1.3,0,1.9-0.1
		c6-0.9,11-5.8,12-11.9c0.9-5.1-2.2-9-5.2-12.8C47.1,91.4,44.5,88,45.3,84.1z M52.1,107.3c-0.8,4.9-4.7,8.8-9.5,9.4
		c-4.3,0.6-8-1.5-10.5-5.7c1.9-2.5,3.8-5.6,5.7-9.3c2.2-4.2,4-8.4,5.3-11.7c1,2.4,2.7,4.6,4.4,6.7C50.2,100.2,52.7,103.5,52.1,107.3
		z"/>
	<path class="st0" d="M108.1,82.3c-4.2,0-8.5,2.3-12,6.1l1.1-4.2c0.2-0.8-0.3-1.6-1.1-1.8c-0.8-0.2-1.6,0.3-1.8,1.1l-13.1,49.2
		c-0.2,0.8,0.3,1.6,1.1,1.8c0.1,0,0.3,0.1,0.4,0.1c0.7,0,1.3-0.4,1.4-1.1l5.8-21.6c0.5,1.5,1.2,2.8,2.1,4c1.9,2.5,4.7,3.8,7.9,3.8
		c7.8,0,15.9-8.1,18.4-18.3c1.5-6,0.7-11.6-2.2-15.2C114,83.7,111.2,82.3,108.1,82.3z M115.3,100.6c-2.1,8.8-9.1,16-15.5,16
		c-2.2,0-4.1-0.9-5.5-2.7c-2.1-2.7-2.8-7-1.9-11.6l0.9-3.3c2.7-7.8,9-13.8,14.8-13.8c2.2,0,4.1,0.9,5.5,2.7
		C115.9,90.8,116.5,95.6,115.3,100.6z"/>
	<path class="st0" d="M200,82.3c-4,0-8.2,2.2-11.5,5.7c-0.3-0.7-0.7-1.3-1.2-1.8c-1.9-2.5-4.7-3.8-7.9-3.8
		c-7.8,0-15.9,8.1-18.4,18.3c-1.5,6-0.7,11.6,2.2,15.2c1.9,2.5,4.7,3.8,7.9,3.8c4,0,8.2-2.2,11.5-5.7c0.3,0.7,0.7,1.3,1.2,1.8
		c1.9,2.5,4.7,3.8,7.9,3.8c7.8,0,15.9-8.1,18.4-18.3c1.5-6,0.7-11.6-2.2-15.2C206,83.7,203.2,82.3,200,82.3z M171.1,116.7
		c-2.2,0-4.1-0.9-5.5-2.7c-2.3-2.9-2.9-7.6-1.7-12.7c2.1-8.8,9.1-16,15.5-16c2.2,0,4.1,0.9,5.5,2.7c0.6,0.7,1,1.6,1.4,2.5
		c-2.1,2.9-3.8,6.4-4.7,10.2c-0.9,3.7-0.9,7.2-0.2,10.2C178.5,114.4,174.7,116.7,171.1,116.7z M186.6,100.6
		c-0.6,2.4-1.5,4.6-2.7,6.6c-0.1-1.9,0.1-3.9,0.6-5.9c0.6-2.4,1.5-4.6,2.7-6.6C187.3,96.6,187.1,98.6,186.6,100.6z M207.2,100.6
		c-2.1,8.8-9.1,16-15.5,16c-2.2,0-4.1-0.9-5.5-2.7c-0.6-0.7-1-1.6-1.4-2.5c2.1-2.9,3.8-6.4,4.7-10.2c0.9-3.7,0.9-7.2,0.2-10.2
		c3-3.5,6.7-5.8,10.3-5.8c2.2,0,4.1,0.9,5.5,2.7C207.8,90.8,208.4,95.6,207.2,100.6z"/>
</g>
</svg>
