<?xml version="1.0" encoding="utf-8"?>
<!-- Generator: Adobe Illustrator 19.1.0, SVG Export Plug-In . SVG Version: 6.00 Build 0)  -->
<svg version="1.0" id="Layer_1" xmlns="http://www.w3.org/2000/svg" xmlns:xlink="http://www.w3.org/1999/xlink" x="0px" y="0px"
	 viewBox="0 0 233.2 69.6" style="enable-background:new 0 0 233.2 69.6;" xml:space="preserve">
<g>
	<path d="M230.6,1.1c-0.8-0.2-1.6,0.3-1.8,1.1L223,23.7c-0.5-1.5-1.2-2.8-2.1-3.9c-1.9-2.5-4.7-3.8-7.9-3.8
		c-7.8,0-15.9,8.1-18.4,18.3c-1.5,6-0.7,11.6,2.2,15.2c1.9,2.5,4.7,3.8,7.9,3.8c4.2,0,8.5-2.3,11.9-6.1l-1.1,4.2
		c-0.2,0.8,0.3,1.6,1.1,1.8c0.1,0,0.3,0.1,0.4,0.1c0.7,0,1.3-0.4,1.4-1.1l13.2-49.3C231.9,2.1,231.4,1.3,230.6,1.1z M204.7,50.3
		c-2.2,0-4.1-0.9-5.5-2.7c-2.3-2.9-2.9-7.6-1.7-12.7c2.1-8.8,9.1-16,15.5-16c2.2,0,4.1,0.9,5.5,2.7c2.1,2.7,2.8,7,1.9,11.6l-0.9,3.3
		C216.9,44.3,210.6,50.3,204.7,50.3z"/>
	<path d="M143.3,16.9c-0.3-0.8-1.1-1.2-1.9-0.9c-0.8,0.3-1.2,1.1-0.9,1.9c0.1,0.2,5.1,15.4-12.6,31.2l-2.6-9.7
		c6.9-12.2,3.7-21.9,3.5-22.4c-0.3-0.8-1.1-1.2-1.9-0.9c-0.8,0.3-1.2,1.1-0.9,1.9c0,0.1,2.4,7.4-1.8,17L119.4,17
		c-0.2-0.8-1-1.3-1.8-1.1c-0.8,0.2-1.3,1-1.1,1.8l5.6,21.1c-2,3.3-4.8,6.7-8.7,10.2L104.9,17c-0.2-0.8-1-1.3-1.8-1.1
		c-0.8,0.2-1.3,1-1.1,1.8l9.2,34.4c0.1,0.5,0.5,0.9,1,1c0.1,0,0.3,0.1,0.5,0.1c0.3,0,0.7-0.1,1-0.3c4.1-3.4,7.3-6.8,9.6-10.1
		l2.5,9.4c0.1,0.5,0.5,0.9,1,1c0.2,0,0.3,0.1,0.5,0.1c0.3,0,0.7-0.1,1-0.3C149.4,35.3,143.6,17.6,143.3,16.9z"/>
	<path d="M69,35C69.1,35,69.1,35,69,35c1.6-6.1,0.9-11.6-1.9-15.3c-1.9-2.5-4.7-3.8-7.9-3.8c-7.9,0-16.2,8-18.9,18.3
		c-1.7,6.4-1.1,12.4,1.6,16c1.6,2,3.7,3.1,6.1,3.1c6.6,0,11.8-4.5,15.3-9l-1.9,7.1c-0.2,0.8,0.3,1.6,1.1,1.8c0.1,0,0.3,0.1,0.4,0.1
		c0.7,0,1.3-0.4,1.4-1.1L69,35z M48.1,50.3c-1.5,0-2.7-0.7-3.7-1.9c-2.1-2.8-2.6-7.9-1.1-13.4c2.4-8.9,9.6-16.1,16-16.1
		c2.3,0,4.1,0.9,5.5,2.7c2.2,2.8,2.7,7.5,1.4,12.5C65.6,35.4,58.6,50.3,48.1,50.3z"/>
	<path d="M28.3,17.7c0.2-0.8-0.3-1.5-1.1-1.8c-0.8-0.2-1.6,0.2-1.8,1C23.4,23,12.7,50.3,2.5,50.3c-0.8,0-1.5,0.7-1.5,1.5
		s0.7,1.5,1.5,1.5c3.5,0,7-2.1,10.6-6.2c2.7,4.1,6.6,6.4,11,6.4c0.6,0,1.3,0,1.9-0.1c6-0.9,11-5.8,12-11.9c0.9-5.1-2.2-9-5.2-12.8
		C30.1,25,27.5,21.6,28.3,17.7z M35.1,40.9c-0.8,4.9-4.7,8.8-9.5,9.4c-4.3,0.6-8-1.5-10.5-5.7c1.9-2.5,3.8-5.6,5.7-9.3
		c2.2-4.2,4-8.4,5.3-11.7c1,2.4,2.7,4.6,4.4,6.7C33.2,33.8,35.7,37.1,35.1,40.9z"/>
	<path d="M91.1,15.9c-4.2,0-8.5,2.3-12,6.1l1.1-4.2c0.2-0.8-0.3-1.6-1.1-1.8c-0.8-0.2-1.6,0.3-1.8,1.1L64.2,66.3
		c-0.2,0.8,0.3,1.6,1.1,1.8c0.1,0,0.3,0.1,0.4,0.1c0.7,0,1.3-0.4,1.4-1.1l5.8-21.6c0.5,1.5,1.2,2.8,2.1,4c1.9,2.5,4.7,3.8,7.9,3.8
		c7.8,0,15.9-8.1,18.4-18.3c1.5-6,0.7-11.6-2.2-15.2C97,17.3,94.2,15.9,91.1,15.9z M98.3,34.2c-2.1,8.8-9.1,16-15.5,16
		c-2.2,0-4.1-0.9-5.5-2.7c-2.1-2.7-2.8-7-1.9-11.6l0.9-3.3c2.7-7.8,9-13.8,14.8-13.8c2.2,0,4.1,0.9,5.5,2.7
		C98.9,24.4,99.5,29.2,98.3,34.2z"/>
	<path d="M183,15.9c-4,0-8.2,2.2-11.5,5.7c-0.3-0.7-0.7-1.3-1.2-1.8c-1.9-2.5-4.7-3.8-7.9-3.8c-7.8,0-15.9,8.1-18.4,18.3
		c-1.5,6-0.7,11.6,2.2,15.2c1.9,2.5,4.7,3.8,7.9,3.8c4,0,8.2-2.2,11.5-5.7c0.3,0.7,0.7,1.3,1.2,1.8c1.9,2.5,4.7,3.8,7.9,3.8
		c7.8,0,15.9-8.1,18.4-18.3c1.5-6,0.7-11.6-2.2-15.2C189,17.3,186.2,15.9,183,15.9z M154.1,50.3c-2.2,0-4.1-0.9-5.5-2.7
		c-2.3-2.9-2.9-7.6-1.7-12.7c2.1-8.8,9.1-16,15.5-16c2.2,0,4.1,0.9,5.5,2.7c0.6,0.7,1,1.6,1.4,2.5c-2.1,2.9-3.8,6.4-4.7,10.2
		c-0.9,3.7-0.9,7.2-0.2,10.2C161.5,48,157.7,50.3,154.1,50.3z M169.6,34.2c-0.6,2.4-1.5,4.6-2.7,6.6c-0.1-1.9,0.1-3.9,0.6-5.9
		c0.6-2.4,1.5-4.6,2.7-6.6C170.3,30.2,170.1,32.2,169.6,34.2z M190.2,34.2c-2.1,8.8-9.1,16-15.5,16c-2.2,0-4.1-0.9-5.5-2.7
		c-0.6-0.7-1-1.6-1.4-2.5c2.1-2.9,3.8-6.4,4.7-10.2c0.9-3.7,0.9-7.2,0.2-10.2c3-3.5,6.7-5.8,10.3-5.8c2.2,0,4.1,0.9,5.5,2.7
		C190.8,24.4,191.4,29.2,190.2,34.2z"/>
</g>
</svg>
